<?xml version="1.0" encoding="utf-8"?>
<!-- Generator: Adobe Illustrator 22.1.0, SVG Export Plug-In . SVG Version: 6.00 Build 0)  -->
<svg version="1.1" id="Calque_1" xmlns="http://www.w3.org/2000/svg" xmlns:xlink="http://www.w3.org/1999/xlink" x="0px" y="0px"
	 viewBox="0 0 500 500" style="enable-background:new 0 0 500 500;" xml:space="preserve">
<style type="text/css">
	.st0{fill:#737373;}
	.st1{fill:#FFFFFF;}
</style>
<g>
	<circle class="st0" cx="250" cy="250" r="250"/>
	<path class="st1" d="M250,397.1c24,0,43.5-19.5,43.5-43.5h-87C206.5,377.6,226,397.1,250,397.1z M396.4,317.1
		c-13.1-14.1-37.7-35.3-37.7-104.9c0-52.8-37-95.1-87-105.5V92.6c0-12-9.7-21.7-21.7-21.7c-12,0-21.7,9.7-21.7,21.7v14.2
		c-49.9,10.4-87,52.6-87,105.5c0,69.5-24.6,90.8-37.7,104.9c-4.1,4.4-5.9,9.6-5.9,14.8c0.1,11.1,8.8,21.7,21.8,21.7h260.8
		c13,0,21.7-10.6,21.8-21.7C402.3,326.7,400.5,321.5,396.4,317.1z"/>
</g>
</svg>
